HIERARCHY
ROOT Hips
{
	OFFSET	0.00	0.00	0.00
	CHANNELS 6 Xposition Yposition Zposition Zrotation Xrotation Yrotation
	JOINT LeftUpLeg
	{
		OFFSET	 0.126116	-0.014019	-0.065224
		CHANNELS 3 Zrotation Xrotation Yrotation
		JOINT LeftLeg
		{
			OFFSET	 0.000000	 0.000000	 0.569914
			CHANNELS 3 Zrotation Xrotation Yrotation
			JOINT LeftFoot
			{
				OFFSET	 0.000000	 0.000000	 0.544423
				CHANNELS 3 Zrotation Xrotation Yrotation
				JOINT LeftToeBase
				{
					OFFSET	 0.000000	 0.000000	 0.207117
					CHANNELS 3 Zrotation Xrotation Yrotation
					End Site
					{
						OFFSET	 0.000000	 0.000000	 0.207117
					}
				}
			}
		}
	}
	JOINT RightUpLeg
	{
		OFFSET	-0.124023	-0.008373	-0.065224
		CHANNELS 3 Zrotation Xrotation Yrotation
		JOINT RightLeg
		{
			OFFSET	 0.000000	 0.000000	 0.570047
			CHANNELS 3 Zrotation Xrotation Yrotation
			JOINT RightFoot
			{
				OFFSET	 0.000000	 0.000000	 0.544354
				CHANNELS 3 Zrotation Xrotation Yrotation
				JOINT RightToeBase
				{
					OFFSET	 0.000000	 0.000000	 0.207540
					CHANNELS 3 Zrotation Xrotation Yrotation
					End Site
					{
						OFFSET	 0.000000	 0.000000	 0.207540
					}
				}
			}
		}
	}
	JOINT Spine
	{
		OFFSET	 0.000184	-0.007763	 0.117403
		CHANNELS 3 Zrotation Xrotation Yrotation
		JOINT Spine1
		{
			OFFSET	 0.000000	 0.000000	 0.137269
			CHANNELS 3 Zrotation Xrotation Yrotation
			JOINT Spine2
			{
				OFFSET	 0.000000	 0.000000	 0.156879
				CHANNELS 3 Zrotation Xrotation Yrotation
				JOINT LeftShoulder
				{
					OFFSET	 0.080501	-0.002496	 0.160144
					CHANNELS 3 Zrotation Xrotation Yrotation
					JOINT LeftArm
					{
						OFFSET	 0.000000	 0.000000	 0.164363
						CHANNELS 3 Zrotation Xrotation Yrotation
						JOINT LeftForeArm
						{
							OFFSET	 0.000000	 0.000000	 0.364576
							CHANNELS 3 Zrotation Xrotation Yrotation
							JOINT LeftHand
							{
								OFFSET	 0.000000	 0.000000	 0.360812
								CHANNELS 3 Zrotation Xrotation Yrotation
								JOINT LeftHandIndex1
								{
									OFFSET	 0.000000	 0.000000	 0.086006
									CHANNELS 3 Zrotation Xrotation Yrotation
									JOINT LeftHandIndex2
									{
										OFFSET	 0.000000	 0.000000	 0.047236
										CHANNELS 3 Zrotation Xrotation Yrotation
										JOINT LeftHandIndex3
										{
											OFFSET	-0.004284	-0.000551	 0.038166
											CHANNELS 3 Zrotation Xrotation Yrotation
											End Site
											{
												OFFSET	-0.004284	-0.000551	 0.038166
											}
										}
									}
								}
							}
						}
					}
				}
				JOINT Neck
				{
					OFFSET	 0.000000	 0.000000	 0.176489
					CHANNELS 3 Zrotation Xrotation Yrotation
					JOINT Head
					{
						OFFSET	 0.000000	-0.001747	 0.077940
						CHANNELS 3 Zrotation Xrotation Yrotation
						End Site
						{
							OFFSET	 0.000000	-0.001747	 0.077940
						}
					}
				}
				JOINT RightShoulder
				{
					OFFSET	-0.080363	 0.000306	 0.159706
					CHANNELS 3 Zrotation Xrotation Yrotation
					JOINT RightArm
					{
						OFFSET	 0.000000	 0.000000	 0.164196
						CHANNELS 3 Zrotation Xrotation Yrotation
						JOINT RightForeArm
						{
							OFFSET	 0.000000	 0.000000	 0.365611
							CHANNELS 3 Zrotation Xrotation Yrotation
							JOINT RightHand
							{
								OFFSET	 0.000000	 0.000000	 0.360648
								CHANNELS 3 Zrotation Xrotation Yrotation
								JOINT RightHandIndex1
								{
									OFFSET	 0.000000	 0.000000	 0.069977
									CHANNELS 3 Zrotation Xrotation Yrotation
									JOINT RightHandIndex2
									{
										OFFSET	 0.000000	 0.000000	 0.052305
										CHANNELS 3 Zrotation Xrotation Yrotation
										JOINT RightHandIndex3
										{
											OFFSET	 0.009002	-0.000782	 0.042196
											CHANNELS 3 Zrotation Xrotation Yrotation
											End Site
											{
												OFFSET	 0.009002	-0.000782	 0.042196
											}
										}
									}
								}
							}
						}
					}
				}
			}
		}
	}
}
MOTION
Frames:    10
Frame Time: 0.03333334
 2.582834	 6.523296	 1.082841	-93.967490	-2.337842	-1.120930	 7.241666	 19.959460	-176.757500	-3.576328	-11.633380	 1.465533	 3.462701	 84.268680	-0.151579	-2.308356	 39.065290	-0.250843	 4.807288	-35.578080	-177.994700	 1.671292	-44.553580	 5.550904	 103.434800	 89.868780	-97.483250	 2.372652	 30.788720	 0.052811	 5.248727	 3.912808	 2.266712	 9.044722	-1.251697	 1.326935	 11.086520	-3.787688	 0.546590	-91.776180	 78.527420	-180.000000	 35.582620	 60.609470	-53.577110	-10.516210	-3.719555	-38.591490	 3.881299	-2.095064	-5.368974	-3.812334	 37.924440	-2.927599	-2.450526	 36.184240	 0.754587	-1.378229	 35.397820	-2.634230	 1.214187	 2.148575	-4.948210	 4.059745	-9.212381	 3.970720	 89.782120	 78.203870	 180.000000	-38.143010	 71.908150	 35.657180	 1.875633	-5.995448	 25.344140	-13.469100	-3.249275	 9.563520	 6.437017	 35.671460	-0.771858	 2.830251	 35.756010	-7.813440	-2.350882	 35.473990	 5.254307
 2.554871	 6.526081	 1.081874	-93.720750	-2.096602	-1.237583	 7.340088	 21.071930	-176.908800	-3.530987	-11.629520	 1.496326	 3.804155	 84.429550	-0.359883	-2.293475	 40.399220	-0.286383	 5.219509	-35.886260	-177.623100	 0.439693	-41.295500	 4.522879	 131.562100	 89.723750	-126.016200	 2.368094	 31.573530	 0.070487	 6.255336	 3.749357	 2.217145	 8.795606	-1.311916	 1.291120	 10.806580	-3.826290	 0.507936	-91.776180	 78.527400	-180.000000	 35.873440	 60.506880	-54.130580	-10.593900	-3.683842	-39.296650	 3.775338	-2.118595	-5.364607	-3.812334	 37.924440	-2.927599	-2.450526	 36.184240	 0.754587	-1.378229	 35.397820	-2.634230	 1.225832	 2.177788	-4.965406	 4.013752	-9.319613	 4.220838	 89.782120	 78.203930	 180.000000	-37.483280	 72.328090	 34.873770	 2.059263	-5.941642	 24.853360	-13.677350	-3.256828	 9.558230	 6.437017	 35.671460	-0.771858	 2.830251	 35.756010	-7.813440	-2.350882	 35.473990	 5.254307
 2.525853	 6.529058	 1.080843	-93.453710	-1.945171	-1.299321	 7.436260	 22.286350	-177.123500	-3.419852	-11.624540	 1.534405	 4.186163	 84.390880	-0.561442	-2.273050	 42.053140	-0.332113	 5.236221	-36.061980	-177.505100	-0.132794	-39.049450	 3.889752	 150.374900	 89.484510	-145.109400	 2.363019	 32.388450	 0.089092	 7.205491	 3.639223	 2.098100	 8.528275	-1.365356	 1.226251	 10.533270	-3.863407	 0.459433	-91.776180	 78.527400	-180.000000	 36.341980	 60.573180	-54.713490	-10.650880	-3.670667	-39.704650	 3.742572	-2.115844	-5.365243	-3.812334	 37.924440	-2.927599	-2.450526	 36.184240	 0.754587	-1.378229	 35.397820	-2.634230	 1.227498	 2.142216	-4.993590	 3.964852	-9.352100	 4.510670	 89.782100	 78.203870	-180.000000	-36.781640	 72.710800	 34.076350	 2.176223	-5.893507	 24.313830	-13.938260	-3.265323	 9.552116	 6.437017	 35.671460	-0.771858	 2.830251	 35.756010	-7.813440	-2.350882	 35.473990	 5.254307
 2.495993	 6.532212	 1.079825	-93.174210	-1.921365	-1.321442	 7.584986	 23.540990	-177.506400	-3.195117	-11.617240	 1.589385	 4.629089	 84.083940	-0.725428	-2.247551	 43.891980	-0.385369	 5.093181	-36.022130	-177.407600	-0.183816	-37.950660	 3.658263	 153.013600	 89.361110	-147.818100	 2.360465	 32.778000	 0.098074	 8.094079	 3.562134	 1.966180	 8.254478	-1.415825	 1.134160	 10.271620	-3.883994	 0.399309	-91.776180	 78.527400	-180.000000	 36.873690	 60.806890	-55.134450	-10.706560	-3.667290	-39.807480	 3.758797	-2.115377	-5.365303	-3.812334	 37.924440	-2.927599	-2.450526	 36.184240	 0.754587	-1.378229	 35.397820	-2.634230	 1.241272	 2.088335	-5.018887	 3.920275	-9.349803	 4.771464	 89.782100	 78.203850	-180.000000	-36.131370	 73.040730	 33.354280	 2.238308	-5.841657	 23.760510	-14.209430	-3.274323	 9.545383	 6.437017	 35.671460	-0.771858	 2.830251	 35.756010	-7.813440	-2.350882	 35.473990	 5.254307
 2.464166	 6.536034	 1.078757	-92.885700	-1.971990	-1.323773	 7.783709	 24.867810	-178.043600	-2.833888	-11.606590	 1.665874	 5.108898	 83.395200	-0.797355	-2.223072	 45.468850	-0.433348	 4.925417	-35.796630	-177.474000	 0.179680	-37.789340	 3.787885	 149.304500	 89.443280	-143.911500	 2.362835	 32.416700	 0.089741	 8.978575	 3.490323	 1.867688	 7.970426	-1.461379	 1.021799	 10.010350	-3.867502	 0.325502	-91.776180	 78.527420	-180.000000	 37.598720	 61.143300	-55.612130	-10.751220	-3.649242	-39.661540	 3.778261	-2.116371	-5.365024	-3.812334	 37.924440	-2.927599	-2.450526	 36.184240	 0.754587	-1.378229	 35.397820	-2.634230	 1.276760	 2.080612	-5.039551	 3.887503	-9.355201	 4.998371	 89.782120	 78.203870	 180.000000	-35.596020	 73.319420	 32.765060	 2.237922	-5.783586	 23.194450	-14.487100	-3.284171	 9.537865	 6.437017	 35.671460	-0.771858	 2.830251	 35.756010	-7.813440	-2.350882	 35.473990	 5.254307
 2.431011	 6.540336	 1.077689	-92.596690	-2.040493	-1.319807	 8.020304	 26.221190	-178.699600	-2.377429	-11.593620	 1.754899	 5.548666	 82.281460	-0.739439	-2.199166	 46.867010	-0.477866	 4.859899	-35.332290	-177.548000	 0.698119	-38.316810	 4.156346	 121.621400	 89.707920	-115.876900	 2.369372	 31.358500	 0.065622	 9.835089	 3.408477	 1.830352	 7.675137	-1.498461	 0.895993	 9.755147	-3.796902	 0.233507	-91.776180	 78.527400	 180.000000	 38.426980	 61.580220	-55.951820	-10.789460	-3.601705	-39.286140	 3.773349	-2.119722	-5.364462	-3.812334	 37.924440	-2.927599	-2.450526	 36.184240	 0.754587	-1.378229	 35.397820	-2.634230	 1.338087	 2.175525	-5.079750	 3.864113	-9.402548	 5.216840	 89.782100	 78.203870	-180.000000	-35.190640	 73.544860	 32.326770	 2.191293	-5.722167	 22.650200	-14.755020	-3.294233	 9.529952	 6.437017	 35.671460	-0.771858	 2.830251	 35.756010	-7.813440	-2.350882	 35.473990	 5.254307
 2.396802	 6.545125	 1.076609	-92.293480	-2.114419	-1.292365	 8.302037	 27.563370	-179.480800	-1.911021	-11.580790	 1.838787	 5.830859	 80.705280	-0.513139	-2.169658	 48.433910	-0.530250	 4.800438	-34.584400	-177.757300	 1.304710	-39.319670	 4.663324	 43.842650	 89.684720	-37.707040	 2.376302	 30.116070	 0.037815	 10.632850	 3.281936	 1.815093	 7.359873	-1.545130	 0.757679	 9.506341	-3.698371	 0.121524	-91.776180	 78.527400	-180.000000	 39.310390	 62.115460	-56.113250	-10.803630	-3.545135	-38.676330	 3.778157	-2.095637	-5.368942	-3.812334	 37.924440	-2.927599	-2.450526	 36.184240	 0.754587	-1.378229	 35.397820	-2.634230	 1.416242	 2.355824	-5.122955	 3.847392	-9.486467	 5.411393	 89.782120	 78.203870	 180.000000	-34.640770	 73.745570	 31.689200	 2.151582	-5.660842	 22.155590	-14.999920	-3.303065	 9.522438	 6.437017	 35.671460	-0.771858	 2.830251	 35.756010	-7.813440	-2.350882	 35.473990	 5.254307
 2.358698	 6.550681	 1.075415	-91.914880	-2.189195	-1.236099	 8.638522	 28.984400	 179.531800	-1.407217	-11.568500	 1.915563	 5.885896	 78.351300	-0.028164	-2.134957	 50.092170	-0.588896	 4.533415	-33.667290	-178.122300	 2.364085	-40.701070	 5.426082	 12.904730	 89.160460	-6.213972	 2.380168	 29.355630	 0.021052	 11.422030	 3.084835	 1.767593	 6.979086	-1.615468	 0.608089	 9.234780	-3.587448	-0.022130	-91.776180	 78.527400	-180.000000	 40.305640	 62.807150	-56.085830	-10.761640	-3.500985	-37.736020	 3.845729	-2.101208	-5.367808	-3.812334	 37.924440	-2.927599	-2.450526	 36.184240	 0.754587	-1.378229	 35.397820	-2.634230	 1.504924	 2.598267	-5.129685	 3.824400	-9.547508	 5.542149	 89.782120	 78.203870	 180.000000	-33.769300	 73.934830	 30.593970	 2.121531	-5.597543	 21.698200	-15.227320	-3.310578	 9.515766	 6.437017	 35.671460	-0.771858	 2.830251	 35.756010	-7.813440	-2.350882	 35.473990	 5.254307
 2.322773	 6.555979	 1.075003	-91.471740	-2.246567	-1.154724	 8.976146	 30.256840	 178.537100	-1.004493	-11.560300	 1.965358	 5.704337	 75.447680	 0.621048	-2.111427	 51.121780	-0.627168	 4.044546	-32.778810	-178.546900	 3.464542	-42.064960	 6.111367	 5.063632	 88.287540	 2.035348	 2.382913	 28.776000	 0.008392	 12.099100	 2.890853	 1.642110	 6.595846	-1.685754	 0.484775	 8.963964	-3.514535	-0.155535	-91.776180	 78.527400	-180.000000	 41.264250	 63.543180	-55.928280	-10.638530	-3.497766	-36.587900	 4.013738	-2.109450	-5.365992	-3.812334	 37.924440	-2.927599	-2.450526	 36.184240	 0.754587	-1.378229	 35.397820	-2.634230	 1.575288	 2.820885	-5.102438	 3.784032	-9.553517	 5.590506	 89.782120	 78.203870	 180.000000	-32.896970	 74.070430	 29.470110	 2.154901	-5.530811	 21.375880	-15.342670	-3.315692	 9.511546	 6.437017	 35.671460	-0.771858	 2.830251	 35.756010	-7.813440	-2.350882	 35.473990	 5.254307
 2.286511	 6.561155	 1.075287	-90.952480	-2.291291	-1.052015	 9.352411	 31.476540	 177.532700	-0.936483	-11.562780	 1.950945	 5.436628	 71.679240	 1.099043	-2.103307	 51.461240	-0.640129	 3.393968	-31.843600	-178.913400	 4.273877	-43.378250	 6.506315	 3.417326	 86.942770	 3.717963	 2.387136	 27.810610	-0.012454	 12.749920	 2.722709	 1.438972	 6.198832	-1.724857	 0.366081	 8.640162	-3.476945	-0.272704	-91.776180	 78.527400	 180.000000	 42.297470	 64.365220	-55.822750	-10.437770	-3.542609	-35.151790	 4.322847	-2.101857	-5.367181	-3.812334	 37.924440	-2.927599	-2.450526	 36.184240	 0.754587	-1.378229	 35.397820	-2.634230	 1.630356	 2.992752	-5.045345	 3.727291	-9.496507	 5.572299	 89.782120	 78.203870	 180.000000	-32.184820	 74.158000	 28.546810	 2.234753	-5.463530	 21.165570	-15.369530	-3.320708	 9.508315	 6.437017	 35.671460	-0.771858	 2.830251	 35.756010	-7.813440	-2.350882	 35.473990	 5.254307
